<?xml version="1.0" encoding="UTF-8"?>
<svg id="Layer_2" data-name="Layer 2" xmlns="http://www.w3.org/2000/svg" xmlns:xlink="http://www.w3.org/1999/xlink" viewBox="0 0 1800 346.66">
  <defs>
    <style>
      .cls-1 {
        mask: url(#mask);
      }

      .cls-2 {
        fill: #d70c19;
      }

      .cls-2, .cls-3 {
        stroke-width: 0px;
      }

      .cls-3 {
        fill: #fff;
      }
    </style>
    <mask id="mask" x="0" y="-5.6" width="1800" height="363.46" maskUnits="userSpaceOnUse">
      <g id="b">
        <g id="use851">
          <path id="a" class="cls-3" d="M0-5.6h1800v363.46H0V-5.6Z"/>
        </g>
      </g>
    </mask>
  </defs>
  <g id="svg863">
    <g id="g858">
      <g class="cls-1">
        <g id="g856">
          <path id="path854" class="cls-2" d="M406.04.93C378,.41,256.33.06,185.37.06H0v66.63c149.19,0,326.25-.35,403.79.87,13.85.17,27.52,1.56,38.42,11.25,10.21,9,13.67,23.19,9.17,35.48-7.27,19.9-27.52,24.75-47.6,25.1-30.81.52-115.1.69-178.1.69-154.56.17-87.58,0-225.69,0v66.46c149.19,0,326.6-.35,403.79.87,24.06.35,49.5,8.65,49.5,35.65s-25.44,35.65-49.5,36c-77.02,1.21-254.6.87-403.79.87v66.63c149.71,0,345.63.52,406.04-.87,31.85-.69,79.1-8.83,106.44-50.37,25.79-38.94,19.56-89.65-14.37-122.02,33.92-32.54,40.15-83.25,14.37-122.02C484.96,9.75,437.88,1.79,406.04.93ZM1595.42,1.93c-39.46-.87-99.17-1.38-151.79-1.56-128.42-.52-51.23-.35-173.6-.35v66.81c130.33,0,221.54-1.04,322.1,1.73,29.6.87,61.27,3.98,89.83,23.71,27,18.69,43.1,48.63,43.1,80.83s-15.58,62.13-42.58,81c-28.56,19.73-60.23,22.85-89.83,23.71-100.56,2.77-191.94,1.73-322.1,1.73l-.52,66.81c131.02,0,225.17.52,325.38-1.9,40.15-.87,89.48-5.54,135.17-38.25,43.27-30.98,69.4-79.62,69.4-133.27s-26.13-102.29-69.4-133.27v.52c-45.52-32.71-95.02-37.38-135.17-38.25ZM685.56,102.87c-.17-32.19,0-70.27,0-102.81h-77.02c0,32.88-.69,99.69.69,132.06,2.6,62.65,23.02,82.21,87.06,84.46,44.48,1.56,79.62,1.04,141.06.87v-67.15c-49.15,0-69.23,0-105.58-.52-34.96-.69-46.04-12.12-46.21-46.9ZM970.44,150.29c36,0,79.96-.17,96.58-.52,34.96-.69,46.04-11.77,46.21-45.69h.52V.06h76.85v101.08c-.17,11.77-.35,22.5-.69,30.98-2.6,63.17-23.19,82.38-91.21,84.46-22.15.87-81,.87-128.08.87h-9.17v129.12h-90.52v-196.27h99.52Z"/>
        </g>
      </g>
    </g>
  </g>
</svg>