<svg xmlns:xlink="http://www.w3.org/1999/xlink" xmlns:inkscape="http://www.inkscape.org/namespaces/inkscape" xmlns:sodipodi="http://sodipodi.sourceforge.net/DTD/sodipodi-0.dtd" xmlns="http://www.w3.org/2000/svg" xmlns:svg="http://www.w3.org/2000/svg" xmlns:rdf="http://www.w3.org/1999/02/22-rdf-syntax-ns#" xmlns:cc="http://creativecommons.org/ns#" xmlns:dc="http://purl.org/dc/elements/1.1/" width="1500" height="90.39" viewBox="0 0 132.29167 7.9718998" version="1.1" id="svg8" inkscape:version="1.4 (86a8ad7, 2024-10-11)" sodipodi:docname="DS Automobiles 2025 wordmark.svg"><SCRIPT xmlns="" id="allow-copy_script"/>
  <defs id="defs2"/>
  <sodipodi:namedview id="base" pagecolor="#ffffff" bordercolor="#666666" borderopacity="1.0" inkscape:pageopacity="0.0" inkscape:pageshadow="2" inkscape:zoom="2.4804975" inkscape:cx="202.98347" inkscape:cy="36.484616" inkscape:document-units="mm" inkscape:current-layer="layer1" showgrid="false" inkscape:snap-global="false" inkscape:window-width="1920" inkscape:window-height="1001" inkscape:window-x="-9" inkscape:window-y="-9" inkscape:window-maximized="1" inkscape:showpageshadow="2" inkscape:pagecheckerboard="0" inkscape:deskcolor="#d1d1d1"/>
  <metadata id="metadata5">
    <rdf:RDF>
      <cc:Work rdf:about="">
        <dc:format>image/svg+xml</dc:format>
        <dc:type rdf:resource="http://purl.org/dc/dcmitype/StillImage"/>
      </cc:Work>
    </rdf:RDF>
  </metadata>
  <g inkscape:label="Layer 1" inkscape:groupmode="layer" id="layer1" transform="translate(-11.256762,-226.88759)">
    <path inkscape:connector-curvature="0" id="path932" style="fill:#000000;fill-opacity:1;fill-rule:nonzero;stroke:none;stroke-width:0.0796281" d="m 17.177167,234.85949 c 1.866562,0 3.393749,-1.52718 3.393749,-3.39375 v -1.1844 c 0,-1.86657 -1.527187,-3.39375 -3.393749,-3.39375 h -5.920405 v 5.2688 h 1.453393 v -3.8153 h 4.345946 c 1.13372,0 2.061308,0.92759 2.061308,2.06131 v 0.94239 c 0,1.13372 -0.927591,2.06131 -2.061314,2.06131 h -5.799333 v 1.45339 z"/>
    <path inkscape:connector-curvature="0" id="path940" style="fill:#000000;fill-opacity:1;fill-rule:nonzero;stroke:none;stroke-width:0.0796281" d="m 29.35152,231.60041 c 0.413399,0 0.751638,0.33804 0.751638,0.7512 v 0.3033 c 0,0.41315 -0.338239,0.75119 -0.751638,0.75119 h -6.962897 v 1.45339 h 6.970071 c 1.208883,0 2.19797,-0.98908 2.19797,-2.19797 v -0.31665 c 0,-1.20888 -0.989087,-2.19797 -2.19797,-2.19797 h -5.06319 c -0.4134,0 -0.751637,-0.33824 -0.751637,-0.75164 v -0.30253 c 0,-0.4134 0.338234,-0.75164 0.751632,-0.75164 h 6.654047 v -1.4535 h -6.661217 c -1.20888,0 -2.197966,0.98908 -2.197966,2.19797 v 0.31688 c 0,1.20888 0.989086,2.19797 2.197971,2.19797 z"/>
    <path inkscape:connector-curvature="0" id="path948" style="fill:#000000;fill-opacity:1;fill-rule:nonzero;stroke:none;stroke-width:0.0796281" d="m 35.871277,234.85949 h 1.752454 l 3.640544,-6.5545 2.882644,5.35439 h -3.949855 l -0.612243,1.20011 h 7.064366 l -4.496955,-7.9719 h -1.772043 z"/>
    <path inkscape:connector-curvature="0" id="path956" style="fill:#000000;fill-opacity:1;fill-rule:nonzero;stroke:none;stroke-width:0.0796281" d="m 47.919689,231.26075 c 0,2.10045 1.496155,3.59874 3.593624,3.59874 h 1.378001 c 2.101486,0 3.600001,-1.49798 3.600001,-3.59874 v -4.37316 h -1.453621 v 4.25356 c 0,1.38014 -0.876276,2.26484 -2.243285,2.26484 h -1.17793 c -1.367009,0 -2.243284,-0.8847 -2.243284,-2.26484 v -4.25356 h -1.453506 z"/>
    <path inkscape:connector-curvature="0" id="path964" style="fill:#000000;fill-opacity:1;fill-rule:nonzero;stroke:none;stroke-width:0.0796281" d="m 61.506397,228.34132 v 6.51817 h 1.453508 v -6.51817 h 3.531897 v -1.45373 h -8.517417 v 1.45373 z"/>
    <path inkscape:connector-curvature="0" id="path972" style="fill:#000000;fill-opacity:1;fill-rule:nonzero;stroke:none;stroke-width:0.0796281" d="m 68.018384,233.4061 c 0.617369,0.90584 1.650186,1.45339 2.913393,1.45339 h 2.380185 c 2.082262,0 3.557749,-1.47343 3.557749,-3.55319 v -0.77589 c 0,-2.21688 -1.435968,-3.64282 -3.668216,-3.64282 h -2.177357 c -2.161185,0 -3.631889,1.44189 -3.631889,3.56036 v 0.79412 c 0,0.32024 0.03303,0.62591 0.09612,0.91438 h 1.536416 c -0.11548,-0.26592 -0.179141,-0.56316 -0.179141,-0.87987 v -0.82863 c 0,-1.15877 0.948202,-2.10686 2.106976,-2.10686 h 2.356611 c 1.158771,0 2.106863,0.94809 2.106863,2.10686 v 0.86268 c 0,1.17084 -0.924628,2.09547 -2.095475,2.09547 z"/>
    <path inkscape:connector-curvature="0" id="path980" style="fill:#000000;fill-opacity:1;fill-rule:nonzero;stroke:none;stroke-width:0.0796281" d="m 82.635683,234.37942 h 1.630259 l 2.405121,-4.50237 v 4.98244 h 1.45351 v -7.9719 h -1.309671 l -3.364034,6.24485 -3.364031,-6.24485 h -1.309673 v 7.9719 h 1.453508 v -4.98244 z"/>
    <path inkscape:connector-curvature="0" id="path988" style="fill:#000000;fill-opacity:1;fill-rule:nonzero;stroke:none;stroke-width:0.0796281" d="m 98.853863,233.4061 h -5.302228 c -1.170846,0 -2.095475,-0.92463 -2.095475,-2.09547 v -0.86268 c 0,-1.15877 0.948089,-2.10686 2.106863,-2.10686 h 2.35661 c 1.158774,0 2.106975,0.94809 2.106975,2.10686 v 0.82863 c 0,0.31671 -0.06366,0.61395 -0.179142,0.87987 h 1.536418 c 0.06309,-0.28847 0.09612,-0.59414 0.09612,-0.91438 v -0.79412 c 0,-2.11847 -1.470704,-3.56036 -3.631888,-3.56036 H 93.67076 c -2.232249,0 -3.668216,1.42594 -3.668216,3.64282 v 0.77589 c 0,2.07976 1.475486,3.55319 3.557749,3.55319 h 2.380184 c 1.263206,0 2.296024,-0.54755 2.913389,-1.45339 z"/>
    <path inkscape:connector-curvature="0" id="path996" style="fill:#000000;fill-opacity:1;fill-rule:nonzero;stroke:none;stroke-width:0.0796281" d="m 108.31381,231.60035 c 0.4532,0 0.80566,0.34928 0.80566,0.79839 v 0.2018 c 0,0.47824 -0.34862,0.80556 -0.85798,0.80556 h -5.39256 v -5.06501 h 5.17366 c 0.44203,0 0.78978,0.34085 0.78978,0.77412 v 0.23897 c 0,0.44634 -0.36327,0.79278 -0.8313,0.79278 h -3.8826 v 1.45339 z m -0.11739,3.25914 c 1.45532,0 2.37645,-0.8632 2.37645,-2.22691 0,-0.84689 -0.35525,-1.53441 -0.9765,-1.88993 0.4594,-0.4248 0.68951,-0.97836 0.68951,-1.6587 0,-1.35812 -0.917,-2.19636 -2.40274,-2.19636 h -6.46772 v 7.9719 z"/>
    <path inkscape:connector-curvature="0" id="path1004" style="fill:#000000;fill-opacity:1;fill-rule:nonzero;stroke:none;stroke-width:0.0796281" d="m 112.46585,234.85949 h 1.45351 v -7.9719 h -1.45351 z"/>
    <path inkscape:connector-curvature="0" id="path1012" style="fill:#000000;fill-opacity:1;fill-rule:nonzero;stroke:none;stroke-width:0.0796281" d="m 116.18021,234.85949 h 6.98317 v -1.45339 h -5.52978 v -6.51851 h -1.45339 z"/>
    <path inkscape:connector-curvature="0" id="path1020" style="fill:#000000;fill-opacity:1;fill-rule:nonzero;stroke:none;stroke-width:0.0796281" d="m 124.91121,234.85949 h 7.76566 v -1.45339 h -6.31215 v -1.80575 h 5.40438 v -1.45351 h -6.85789 z m 0,-6.5184 h 7.64893 v -1.4535 h -7.64893 z"/>
    <path inkscape:connector-curvature="0" id="path1028" style="fill:#000000;fill-opacity:1;fill-rule:nonzero;stroke:none;stroke-width:0.0796281" d="m 141.34328,231.60041 c 0.4134,0 0.75164,0.33804 0.75164,0.7512 v 0.3033 c 0,0.41315 -0.33824,0.75119 -0.75164,0.75119 h -6.96289 v 1.45339 h 6.97007 c 1.20888,0 2.19797,-0.98908 2.19797,-2.19797 v -0.31665 c 0,-1.20888 -0.98909,-2.19797 -2.19797,-2.19797 h -5.0632 c -0.41339,0 -0.75162,-0.33824 -0.75162,-0.75164 v -0.30253 c 0,-0.4134 0.33822,-0.75164 0.75162,-0.75164 h 6.65404 v -1.4535 h -6.6612 c -1.20889,0 -2.19797,0.98908 -2.19797,2.19797 v 0.31688 c 0,1.20888 0.98908,2.19797 2.19797,2.19797 z"/>
  </g>
</svg>