<?xml version="1.0" encoding="UTF-8"?> <svg xmlns="http://www.w3.org/2000/svg" width="1126" height="347" viewBox="0 0 1126 347" fill="none"> <path d="M173.167 0C77.5374 0 0 77.5211 0 173.5C0 269.109 77.5374 346.63 173.167 346.63C268.796 346.63 346.334 269.109 346.334 173.5C346.703 77.5211 268.796 0 173.167 0ZM331.934 173.13C331.934 260.619 261.043 331.864 173.536 331.864H173.167C86.0296 331.864 14.769 260.988 14.769 173.5C14.769 131.417 31.015 91.5487 60.9223 61.6477C90.8295 31.7467 130.706 15.1351 172.798 15.1351H173.167C260.673 14.7659 331.565 85.6424 331.934 173.13Z" fill="black"></path> <path d="M266.212 91.5488C263.996 91.5488 261.781 92.6563 260.304 94.502L141.783 257.665C139.198 261.357 139.198 266.156 141.783 269.478L164.675 300.856C166.89 303.809 169.844 305.286 173.536 305.286C176.859 305.286 180.182 303.809 182.398 300.856L298.334 141.753C300.919 138.431 300.919 133.632 298.334 130.309L272.489 94.502C270.642 92.6563 268.427 91.5488 266.212 91.5488Z" fill="black"></path> <path d="M233.351 103.362L237.043 98.1935C239.258 95.2403 237.043 91.1797 233.72 91.1797H229.658H176.859C172.059 91.1797 167.628 93.3946 165.044 97.0861L95.2602 193.065C92.6756 196.756 92.6756 201.186 95.2602 204.877L118.521 236.993L119.998 239.208L122.952 243.269C125.167 246.222 129.229 246.222 131.075 243.269L135.875 236.624L233.351 103.362ZM133.29 240.316C133.66 239.946 133.66 239.946 133.29 240.316Z" fill="black"></path> <path d="M141.413 103.362L142.152 102.623L145.106 98.5626C147.321 95.6095 145.106 91.5488 141.783 91.5488H136.613H134.398H83.8142C79.3835 91.5488 75.322 93.7637 72.7374 97.086L48.7378 129.94C46.1532 133.263 46.1532 138.061 48.7378 141.384L72.3682 173.869L77.1681 180.514C79.3835 183.467 83.445 183.467 85.2911 180.514L90.091 173.869L141.413 103.362Z" fill="black"></path> <path d="M721.098 157.256H767.251V224.81H790.143V157.256H837.404V136.953H721.098V157.256Z" fill="black"></path> <path d="M434.209 152.826V224.441H457.101V196.017H526.885V176.821H457.101V158.733C457.101 157.995 457.84 157.256 458.578 157.256H549.408V136.953H450.086C441.225 136.953 434.209 143.967 434.209 152.826Z" fill="black"></path> <path d="M1111 136.953H1009.83V224.441H1032.72V157.256H1101.4C1102.14 157.256 1102.88 157.995 1102.88 158.733V224.81H1125.77V152.457C1126.51 143.967 1119.49 136.953 1111 136.953Z" fill="black"></path> <path d="M966.633 136.953H875.065C865.465 136.953 857.711 144.705 857.711 154.303V207.46C857.711 217.058 865.465 224.81 875.065 224.81H966.633C976.233 224.81 983.987 217.058 983.987 207.46V154.303C983.987 144.705 976.233 136.953 966.633 136.953ZM960.725 158.733V203.031C960.725 203.769 959.987 204.507 959.248 204.507H882.45C881.711 204.507 880.973 203.769 880.973 203.031V158.733C880.973 157.995 881.711 157.256 882.45 157.256H959.248C959.987 157.256 960.725 157.995 960.725 158.733Z" fill="black"></path> <path d="M682.698 136.953H591.131C581.531 136.953 573.777 144.705 573.777 154.303V207.46C573.777 217.058 581.531 224.81 591.131 224.81H682.698C692.298 224.81 700.052 217.058 700.052 207.46V154.303C699.683 144.705 691.929 136.953 682.698 136.953ZM676.791 158.733V203.031C676.791 203.769 676.052 204.507 675.314 204.507H598.515C597.777 204.507 597.038 203.769 597.038 203.031V158.733C597.038 157.995 597.777 157.256 598.515 157.256H675.314C676.052 157.256 676.791 157.995 676.791 158.733Z" fill="black"></path> </svg> 