<svg xmlns="http://www.w3.org/2000/svg" version="1.2" viewBox="0 0 1505 837"><path d="M35.64 3.04C56.33-4.08 76.71 7.28 95.65 14.4c200.57 86.32 400.09 175.2 599.78 263.52 37.72 12.88 25.41 59.92 24.93 90.24-1.04 16.48-17.82 21.92-31.88 20.72-115.47-.72-230.85.24-346.32-.48-25.33 2.48-42.59-17.92-59.05-33.76C193.3 265.76 102.44 177.68 15.42 86-10.39 61.84-.88 10.4 35.64 3.04Zm1383.27 7.44c22.53-10.96 54.34-15.92 72.24 5.92 20.37 19.28 15.82 51.92-2.96 70.48-86.78 94.64-181.23 181.84-271.53 273.04-15.58 14.64-33.64 30.96-56.65 29.04-112.59-.56-225.18-.32-337.77-.16-12.14 0-23.97-2.88-35.64-5.76-4.07-28.16-10.54-58.16-.23-85.84 5.43-12.72 19.97-17.52 31.4-23.44 200.49-87.6 399.85-177.84 601.14-263.28ZM267.93 497.76c22.21-19.6 42.35-49.84 75.51-48.48 109.47-.4 219.03.48 328.5-.4 14.94-.16 29.8 1.92 44.51 4.32 4.87 35.84 20.45 94.24-25.25 109.2-200.57 88.16-400.26 178.16-601.78 264.08-23.34 10.16-54.66 17.68-74.8-2.72-22.29-21.04-15.82-58.48 5.6-77.84C101.8 662.32 184.9 580 267.93 497.76Zm534.1-47.36c108.19-2.88 216.54-.16 324.82-1.36 25.57.96 55.69-3.68 75.67 16.24 85.42 82.72 169.48 166.8 253.15 251.28 20.45 23.36 54.57 46.4 48.02 81.68-6.87 37.12-51.86 47.12-81.66 30.88-202.73-85.84-403.38-176.56-604.98-265.2-42.59-9.76-39.08-60-33.16-93.6.8-9.84 7.59-19.6 18.14-19.92Z"/></svg>